{"title":"Six.Nations.Rugby.Highlights.Weekend.4-2013-03-10-720p.x264","uid":8255858,"size":1306335851,"categoryP":"video","categoryS":"hd___tv_shows","magnet":"?xt=urn:btih:d274696e12c33ed6acfbf3a553d589f8cf40494d&amp;dn=Six.Nations.Rugby.Highlights.Weekend.4-2013-03-10-720p.x264&amp;tr=udp%3A%2F%2Ftracker.openbittorrent.com%3A80&amp;tr=udp%3A%2F%2Fopen.demonii.com%3A1337&amp;tr=udp%3A%2F%2Ftracker.coppersurfer.tk%3A6969&amp;tr=udp%3A%2F%2Fexodus.desync.com%3A6969","seeders":0,"leechers":1,"uploader":null,"files":4,"time":1363221895,"description":"SPORT: Six Nations Rugby Highlights\nOn: BBC HD\nDate: Sunday 10th March 2013 \nTime: 23:35 to 00:20 \n\nThe best of the action and reaction from the fourth weekend of the Six Nations. Reigning champions Wales take on Scotland at Murrayfield, Stuart Lancaster's England host Italy at Twickenham, and France travel to Dublin to play Ireland.\n\n\nGeneral\nComplete name: 2013.03.10.6N.Highlights.h720p.x264.mp4\nFormat : MPEG-4\nFormat profile : Base Media\nCodec ID : isom\nFile size: 1.22 GiB\nDuration : 44mn 1s\nOverall bit rate mode: Variable\nOverall bit rate : 3 956 Kbps\n\nVideo\nID : 1\nFormat : AVC\nFormat/Info: Advanced Video Codec\nFormat profile : &lt;a class=&quot;__cf_email__&quot; href=&quot;/cdn-cgi/l/email-protection&quot; data-cfemail=&quot;82caebe5eac2ceb6acb3&quot;&gt;[email&amp;#160;protected]&lt;/a&gt;&lt;script cf-hash='f9e31' type=&quot;text/javascript&quot;&gt;\n/* &lt;![CDATA[ */!function(){try{var t=&quot;currentScript&quot;in document?document.currentScript:function(){for(var t=document.getElementsByTagName(&quot;script&quot;),e=t.length;e--;)if(t[e].getAttribute(&quot;cf-hash&quot;))return t[e]}();if(t&amp;&amp;t.previousSibling){var e,r,n,i,c=t.previousSibling,a=c.getAttribute(&quot;data-cfemail&quot;);if(a){for(e=&quot;&quot;,r=parseInt(a.substr(0,2),16),n=2;a.length-n;n+=2)i=parseInt(a.substr(n,2),16)^r,e+=String.fromCharCode(i);e=document.createTextNode(e),c.parentNode.replaceChild(e,c)}}}catch(u){}}();/* ]]&gt; */&lt;/script&gt;\nFormat settings, CABAC : Yes\nFormat settings, ReFrames: 5 frames\nCodec ID : avc1\nCodec ID/Info: Advanced Video Coding\nDuration : 44mn 1s\nBit rate : 3 828 Kbps\nMaximum bit rate : 15.0 Mbps\nWidth: 1 280 pixels\nHeight : 720 pixels\nDisplay aspect ratio : 16:9\nFrame rate mode: Constant\nFrame rate : 25.000 fps\nColor space: YUV\nChroma subsampling : 4:2:0\nBit depth: 8 bits\nScan type: Progressive\nBits/(Pixel*Frame) : 0.166\nStream size: 1.18 GiB (97%)\nWriting library: x264 core 130 r2273 b3065e6\n\nAudio\nID : 2\nFormat : AAC\nFormat/Info: Advanced Audio Codec\nFormat profile : LC\nCodec ID : 40\nDuration : 44mn 1s\nBit rate mode: Variable\nBit rate : 124 Kbps\nMaximum bit rate : 129 Kbps\nChannel(s) : 2 channels\nChannel positions: Front: L R\nSampling rate: 48.0 KHz\nCompression mode : Lossy\nDelay relative to video: 80ms\nStream size: 39.0 MiB (3%)\n\n","torrent":{"xt":"urn:btih:d274696e12c33ed6acfbf3a553d589f8cf40494d","amp;dn":"Six.Nations.Rugby.Highlights.Weekend.4-2013-03-10-720p.x264","amp;tr":["udp%3A%2F%2Ftracker.openbittorrent.com%3A80","udp%3A%2F%2Fopen.demonii.com%3A1337","udp%3A%2F%2Ftracker.coppersurfer.tk%3A6969","udp%3A%2F%2Fexodus.desync.com%3A6969"],"infoHash":"d274696e12c33ed6acfbf3a553d589f8cf40494d","infoHashBuffer":{"type":"Buffer","data":[210,116,105,110,18,195,62,214,172,251,243,165,83,213,137,248,207,64,73,77]},"announce":[],"urlList":[]}}